<?xml version="1.0" standalone="no"?>
<!DOCTYPE svg PUBLIC "-//W3C//DTD SVG 20010904//EN"
 "http://www.w3.org/TR/2001/REC-SVG-20010904/DTD/svg10.dtd">
<svg version="1.0" xmlns="http://www.w3.org/2000/svg"
 width="220.000000pt" height="220.000000pt" viewBox="0 0 220.000000 220.000000"
 preserveAspectRatio="xMidYMid meet">
<metadata>
Created by potrace 1.11, written by Peter Selinger 2001-2013
</metadata>
<g transform="translate(0.000000,220.000000) scale(0.100000,-0.100000)"
fill="#000000" stroke="none">
<path d="M1522 2184 c-12 -8 -22 -21 -22 -28 0 -7 -24 -43 -54 -80 -92 -116
-187 -341 -211 -498 l-7 -45 -44 13 c-24 7 -61 15 -82 18 -20 3 -57 12 -81 21
-60 22 -108 24 -161 9 -25 -8 -46 -14 -47 -14 -2 0 -11 17 -22 38 -43 85 -140
155 -216 156 -23 1 -47 8 -57 19 -39 38 -118 5 -118 -48 0 -33 33 -65 68 -65
29 1 62 20 62 38 0 6 7 17 15 26 41 40 164 -32 222 -131 l25 -44 -35 -32 c-19
-18 -47 -53 -62 -78 -16 -24 -48 -66 -72 -94 -76 -87 -156 -269 -178 -405 -4
-25 -9 -54 -12 -65 -13 -57 -11 -284 3 -350 23 -103 84 -223 143 -281 41 -40
149 -115 182 -126 5 -2 4 -18 -3 -36 -12 -31 -11 -35 12 -54 17 -14 35 -18 60
-15 19 2 42 -1 51 -6 28 -17 69 0 75 33 6 29 7 29 71 26 36 -1 88 1 114 4 43
6 49 4 49 -11 0 -30 22 -68 42 -75 31 -9 76 6 93 32 10 15 22 23 31 20 8 -3
23 3 34 14 19 19 19 22 5 57 l-16 37 33 25 c41 32 118 113 118 125 0 5 9 -3
20 -17 15 -19 27 -24 48 -21 33 6 62 38 62 70 0 13 5 24 10 24 6 0 14 10 19
23 11 27 -12 70 -46 88 -20 11 -22 17 -16 48 6 33 10 61 12 85 1 5 11 0 24
-12 38 -36 86 -22 93 25 2 8 12 24 23 34 30 29 37 66 16 89 -10 11 -25 20 -33
20 -33 0 -98 42 -128 83 -18 23 -38 65 -46 94 l-15 52 38 37 c123 120 120 360
-7 486 -89 90 -215 109 -321 50 -31 -17 -30 -3 2 116 41 149 116 304 185 381
28 32 31 33 48 17 61 -55 152 29 96 89 -26 29 -59 32 -92 9z"/>
</g>
</svg>
